<svg width="500" height="500" viewBox="0 0 500 500" fill="none" xmlns="http://www.w3.org/2000/svg">
<path d="M195.877 67.7957C193.637 68.9155 193.477 70.0353 195.637 69.4754C197.717 68.9155 197.797 70.9152 195.717 72.755C193.877 74.4348 192.518 74.5147 184.759 73.6349C180.759 73.2349 178.919 73.3149 178.52 73.9548C178.2 74.4348 177.4 74.8347 176.68 74.8347C176.04 74.8347 174.36 75.3146 173 75.9546C171.56 76.5945 169.561 77.3144 168.441 77.5543C167.321 77.8743 164.441 78.6742 162.042 79.3141C159.002 80.194 152.923 80.6739 142.524 80.9139C128.286 81.2338 127.247 81.1538 125.887 79.634C125.087 78.8342 124.447 77.3943 124.447 76.5145C124.447 74.5947 123.007 74.0348 120.447 74.9947C117.408 76.1145 114.928 78.7542 112.369 83.6335C109.489 89.2327 108.849 89.9526 104.13 93.5522C99.7303 96.9117 97.7305 99.1514 96.8506 101.871C96.5307 102.911 94.531 105.79 92.2913 108.19C88.9317 111.87 88.3718 112.99 88.8517 114.749C89.0917 115.869 89.4916 118.109 89.5716 119.629C89.7316 121.148 89.8916 122.588 89.9716 122.828C89.9716 123.148 91.2514 123.708 92.6912 124.268C94.131 124.828 96.1307 126.268 97.0906 127.628C98.7704 129.867 98.7704 130.187 97.6505 131.867C97.0106 132.907 95.5708 134.187 94.451 134.667C93.3311 135.146 92.4512 135.946 92.4512 136.426C92.4512 136.906 91.9713 137.226 91.4914 137.066C89.4916 136.746 87.012 138.106 86.5321 139.866L86.0521 141.626L84.9323 139.946C83.8924 138.506 82.6126 138.186 77.2533 137.786C72.9339 137.546 70.2943 136.906 69.3344 136.106C68.5345 135.386 67.4946 134.827 67.0147 134.827C65.4149 134.827 62.6153 132.987 60.2156 130.427C58.0559 128.107 57.9759 128.107 57.496 129.867C56.9361 132.107 55.4163 131.067 53.5765 127.148C52.8566 125.628 51.9768 124.428 51.5768 124.428C51.1769 124.428 50.8569 123.628 50.8569 122.748C50.8569 121.788 49.4971 119.629 47.7373 117.949C44.6178 114.829 43.2579 114.189 42.698 115.629C42.618 116.029 41.0982 116.509 39.4185 116.669C35.819 116.989 32.0595 120.268 30.8596 124.108C28.6199 130.827 29.5798 136.426 33.8192 141.626C34.8591 142.905 37.1788 145.945 38.9385 148.265C42.2181 152.584 52.8566 161.623 56.2162 162.903C57.256 163.303 58.0559 163.943 58.0559 164.423C58.0559 164.822 58.6159 165.222 59.2558 165.222C60.2156 165.222 65.4949 167.302 66.7747 168.182C67.0147 168.342 65.7349 169.862 64.0551 171.622C61.0955 174.581 60.5356 176.261 60.2156 182.34C60.0557 184.58 60.2156 184.74 63.0952 184.82C64.855 184.9 66.4548 185.3 66.6948 185.78C67.0147 186.18 67.8946 186.819 68.7745 187.059C69.9743 187.539 70.0543 187.859 69.1744 188.899C67.0147 191.459 65.4949 191.699 63.5752 189.699C61.1755 187.219 60.4556 187.699 60.4556 191.619C60.4556 194.738 60.3756 194.818 54.0565 198.498C50.5369 200.498 47.4974 202.417 47.2574 202.817C46.4575 204.097 51.5768 202.177 54.2164 200.178C60.5356 195.458 63.1752 195.138 66.4548 198.818C68.6145 201.217 71.3341 202.497 75.6535 203.137C77.5733 203.457 79.893 204.337 80.7728 205.057C82.2126 206.337 82.2926 206.337 81.8127 205.057C80.9328 202.577 86.932 201.377 90.0516 203.377C92.0513 204.657 92.0513 204.657 90.6915 203.057C89.8916 202.177 89.2517 200.818 89.2517 199.938C89.2517 198.818 90.3715 199.618 93.4911 202.977C95.8108 205.537 98.1305 207.617 98.5304 207.617C99.0104 207.617 100.85 209.456 102.69 211.776C105.969 215.696 106.049 215.936 104.69 217.455C103.41 218.895 103.41 219.055 104.61 218.575C105.809 218.175 105.809 218.415 104.93 221.455C103.65 225.854 101.17 227.054 93.7311 226.894C87.092 226.734 87.172 228.254 93.8111 228.654C97.7305 228.894 100.45 230.174 100.45 231.693C100.45 232.093 99.4903 232.413 98.2905 232.493C96.1307 232.493 96.0508 232.493 97.8905 233.293C98.9304 233.693 99.5703 234.253 99.3303 234.653C99.1703 234.973 100.69 235.213 102.69 235.133C104.77 235.133 107.089 235.373 107.889 235.773C109.169 236.413 109.169 236.653 107.649 239.612C105.809 243.212 105.729 243.612 106.849 243.612C107.329 243.612 107.649 242.972 107.649 242.172C107.649 241.452 108.369 239.932 109.249 238.812C111.089 236.413 111.329 236.973 111.889 244.892C112.449 251.851 114.048 255.85 117.888 259.85C120.687 262.729 121.007 262.889 124.447 262.409C128.846 261.769 130.046 260.809 130.046 258.09C130.046 254.73 131.966 252.81 137.325 250.811C143.884 248.331 148.604 243.772 150.043 238.412C151.323 233.533 152.283 232.333 153.323 234.173C154.603 236.493 155.643 235.773 155.163 232.973C154.683 230.733 154.763 230.574 155.723 231.693C157.082 233.293 163.242 237.213 164.441 237.213C166.361 237.213 173.64 246.331 172.76 247.691C172.44 248.331 172.52 248.411 173.08 248.091C174.2 247.451 178.6 252.091 179.319 254.57C179.559 255.61 180.199 256.41 180.759 256.41C181.799 256.41 185.239 263.289 185.239 265.289C185.239 266.809 187.398 268.888 188.118 268.168C188.678 267.608 188.358 266.809 186.198 263.209C184.519 260.409 183.559 258.01 184.119 258.01C184.279 258.01 185.719 259.21 187.158 260.569C192.998 266.329 195.877 268.648 191.878 264.409C184.679 256.81 187.158 257.21 196.597 265.049C201.716 269.368 207.076 275.607 205.636 275.607C204.996 275.607 201.636 272.088 201.636 271.448C201.636 271.208 201.316 270.648 200.916 270.248C200.517 269.848 200.437 270.008 200.757 270.568C201.636 272.168 200.357 271.768 198.277 269.848C195.397 267.129 196.117 269.368 200.037 275.047C204.836 282.087 204.916 284.246 200.197 279.767L197.797 277.607L199.237 279.767C199.957 281.047 200.916 282.007 201.156 282.007C201.476 282.007 202.276 282.886 202.836 284.006C203.796 285.766 203.956 285.846 204.836 284.646C205.396 283.926 206.196 283.606 206.756 284.006C207.556 284.486 207.556 284.166 206.756 282.726C206.196 281.687 205.796 280.727 205.876 280.647C205.956 280.487 205.796 279.847 205.476 279.207C204.516 276.567 205.956 277.207 208.116 280.327C209.395 282.087 210.755 283.606 211.235 283.606C211.635 283.606 211.555 283.206 210.995 282.646C209.635 281.287 209.795 280.007 211.155 281.127C211.795 281.607 212.595 282.007 212.915 281.847C213.795 281.607 217.474 283.606 218.194 284.726C219.474 286.646 218.674 286.806 216.274 285.126L213.635 283.366L216.354 286.246C219.794 289.845 218.434 290.245 214.915 286.646C210.995 282.646 212.035 285.126 216.034 289.446C219.234 292.805 219.554 293.445 218.674 294.725C216.514 297.684 204.596 307.523 202.516 308.083C199.397 308.803 197.557 311.922 198.677 314.402C200.517 318.402 206.036 315.842 206.036 311.043C206.036 310.083 207.236 308.083 208.755 306.643C210.195 305.203 213.955 301.604 216.994 298.644L222.514 293.205L228.513 292.725C234.912 292.165 237.072 291.365 238.671 289.046C240.191 286.966 242.191 287.286 244.831 290.005C247.47 292.725 247.87 292.885 249.55 291.205C250.99 289.685 252.669 290.325 254.109 292.885C254.669 294.005 256.189 295.845 257.469 296.884C259.868 298.964 263.228 304.803 264.028 308.483C264.348 309.763 266.028 312.002 267.867 313.682C269.707 315.282 273.547 318.882 276.426 321.601C279.306 324.321 282.185 326.8 282.825 327.2C284.185 327.92 277.706 320.961 273.067 316.562C271.387 315.042 270.027 313.522 270.027 313.042C270.027 312.642 269.627 311.922 269.227 311.363C268.747 310.803 266.748 307.923 264.828 304.803C261.948 300.404 261.388 299.044 262.188 298.244C263.468 297.044 267.627 296.805 272.187 297.604C274.986 298.084 275.706 297.924 276.106 296.884C276.506 295.845 277.226 296.405 279.306 299.364C280.746 301.444 284.105 304.483 286.585 306.163C292.744 310.243 303.143 321.041 307.942 328.4C310.102 331.68 313.701 336.719 315.861 339.519C320.9 346.078 324.42 353.437 324.9 357.996C325.22 361.756 327.939 365.195 330.579 365.195C331.299 365.195 332.579 365.755 333.378 366.555C334.258 367.355 334.818 367.515 334.818 366.875C334.818 366.395 334.338 365.755 333.698 365.515C332.819 365.195 332.899 364.635 333.938 362.316C334.578 360.876 335.618 359.596 336.178 359.596C336.738 359.596 338.098 361.036 339.218 362.796C341.777 366.875 342.737 367.035 340.338 362.956C337.698 358.636 332.339 351.597 331.539 351.597C331.219 351.597 330.659 351.917 330.419 352.397C330.179 352.797 329.139 353.197 328.179 353.117C326.899 353.117 325.38 351.517 322.58 347.358C312.501 332.08 305.862 323.121 299.863 316.722C295.784 312.242 293.704 309.443 294.264 309.123C294.824 308.803 296.983 308.323 299.063 308.083C302.503 307.523 303.223 307.763 305.862 309.763C307.462 310.963 310.102 312.882 311.701 314.002C313.381 315.122 316.581 317.442 318.98 319.281C321.3 321.041 324.82 323.281 326.819 324.241C332.179 326.8 339.618 332.96 339.618 334.799C339.618 335.599 341.057 337.519 342.817 338.959C344.657 340.319 346.817 342.718 347.776 344.238C349.696 347.358 355.855 352.077 362.734 355.677C366.094 357.436 369.134 359.996 372.573 363.915C375.293 367.035 378.892 370.874 380.572 372.394C382.172 373.914 384.731 377.354 386.091 379.993C389.371 386.232 392.73 389.832 397.13 391.672C399.049 392.551 401.769 394.151 403.129 395.351C406.568 398.231 410.648 399.831 414.407 399.671C417.287 399.591 418.087 399.99 421.206 403.27C423.206 405.27 426.726 407.749 429.045 408.789C431.605 409.989 433.205 411.189 433.205 411.989C433.205 412.709 433.685 413.189 434.245 412.949C436.004 412.309 439.524 414.708 441.524 417.908C442.644 419.588 444.803 421.588 446.563 422.387C448.243 423.187 451.442 425.667 453.762 427.987C456.962 431.266 458.721 432.386 461.121 432.786C465.121 433.426 470.8 432.546 470.8 431.266C470.8 430.786 469.04 428.547 466.88 426.467C462.961 422.547 462.881 422.547 457.362 422.467C452.242 422.387 451.602 422.147 450.083 420.228C448.323 417.988 444.243 415.588 442.244 415.588C441.604 415.588 440.564 415.108 440.004 414.549C439.364 414.069 437.444 412.469 435.605 411.189C433.765 409.829 431.605 407.429 430.725 405.83C429.925 404.23 428.406 402.63 427.446 402.39C423.366 401.19 418.887 398.471 417.927 396.631C417.367 395.591 415.767 394.151 414.407 393.511C410.648 391.752 403.129 384.793 401.129 381.273C400.169 379.593 397.77 377.194 395.77 375.914C389.691 372.074 388.411 370.554 387.851 366.315C387.611 364.235 386.411 360.876 385.211 358.876C384.012 356.876 382.732 354.317 382.412 353.277C380.972 348.557 377.452 344.878 368.814 339.039C360.415 333.44 356.735 332.16 349.536 332.4C346.977 332.4 345.377 331.84 342.017 329.52C339.698 327.92 336.178 325.921 334.338 325.041C332.419 324.241 330.659 323.281 330.499 322.881C330.259 322.481 329.059 321.921 327.859 321.601C325.54 321.041 317.941 316.322 315.221 313.762C314.341 312.962 312.741 311.762 311.621 311.203C310.502 310.643 308.582 309.043 307.302 307.683C305.142 305.443 304.982 304.963 305.782 302.404C306.262 300.884 306.502 298.804 306.182 297.844C305.062 293.445 297.703 285.206 293.544 283.606C292.504 283.206 290.344 282.806 288.825 282.646C287.225 282.566 285.785 282.246 285.545 281.927C285.385 281.607 283.705 281.847 281.865 282.406C278.906 283.206 278.426 283.686 278.186 285.686C277.786 290.485 277.226 291.605 275.466 291.605C274.506 291.605 273.147 291.125 272.507 290.485C271.147 289.286 266.508 286.566 261.948 284.326C260.428 283.526 258.669 282.326 258.029 281.687C257.469 280.967 256.509 280.407 255.869 280.407C255.309 280.407 251.23 276.967 246.99 272.808C237.072 263.129 236.112 262.249 234.992 262.649C234.432 262.809 233.792 262.409 233.552 261.689C233.312 260.969 232.592 260.409 232.032 260.409C231.472 260.409 230.512 259.85 229.953 259.05C229.313 258.33 227.073 256.41 224.833 254.81C222.674 253.13 219.874 250.891 218.754 249.851C217.554 248.731 216.034 248.011 215.315 248.091C214.595 248.171 214.035 247.931 214.035 247.531C214.035 247.131 213.395 246.491 212.675 246.251C211.955 245.931 209.955 244.412 208.275 242.732C205.556 240.092 205.396 239.692 206.596 238.732C207.636 237.853 207.956 237.853 208.195 238.572C208.435 239.132 209.155 239.612 209.795 239.612C210.595 239.612 210.835 239.132 210.515 238.332C209.955 236.893 212.035 234.893 214.195 234.813C214.915 234.813 215.794 234.413 216.114 233.933C216.514 233.293 215.954 233.133 214.355 233.453C212.835 233.693 211.795 233.453 210.995 232.573C210.115 231.373 210.035 231.453 210.755 232.893C211.875 235.133 210.035 236.813 205.476 237.853C202.596 238.492 201.956 238.412 200.677 237.053C199.877 236.173 198.197 234.893 196.917 234.253C192.918 232.173 187.638 226.734 187.638 224.734C187.638 222.255 188.758 222.335 189.878 224.894C190.518 226.254 191.318 226.814 192.278 226.494C193.717 226.014 197.077 228.094 196.197 228.894C195.877 229.214 195.157 228.974 194.437 228.414C193.717 227.854 192.998 227.534 192.838 227.774C192.598 227.934 193.557 228.974 194.997 230.014C196.357 230.973 197.157 231.373 196.837 230.813C196.517 230.254 196.677 229.534 197.317 229.134C198.197 228.654 197.957 228.094 196.117 226.654C194.837 225.614 192.838 223.934 191.718 222.895C189.718 221.055 189.718 220.975 191.478 221.455C192.598 221.695 193.238 221.535 193.238 220.895C193.238 220.335 192.198 219.855 190.918 219.855C186.278 219.855 184.839 216.095 187.558 211.056C188.758 208.816 188.678 208.417 187.238 208.417C186.518 208.417 186.038 207.697 186.038 206.417C186.038 204.097 186.518 203.937 188.198 205.617C188.838 206.257 189.718 206.657 190.118 206.337C190.598 206.097 191.398 206.337 192.038 206.817C192.998 207.617 193.318 207.537 193.717 206.417C194.037 205.697 194.517 205.377 194.757 205.777C194.997 206.177 196.757 206.977 198.677 207.457C200.517 208.017 201.876 208.816 201.636 209.216C201.316 209.696 201.876 210.016 202.756 210.016C203.636 210.016 205.636 210.736 207.236 211.616C208.835 212.496 210.915 213.216 212.035 213.216C213.235 213.216 215.794 214.976 219.394 218.415C222.354 221.295 224.993 223.614 225.073 223.614C225.233 223.614 224.273 222.175 222.913 220.495C221.554 218.815 220.434 216.975 220.434 216.495C220.434 216.015 219.954 215.616 219.314 215.616C218.754 215.616 217.794 215.056 217.154 214.336C216.274 213.216 216.434 213.136 219.074 213.536C220.674 213.776 223.313 214.176 224.833 214.416C226.353 214.656 227.633 215.136 227.633 215.456C227.633 215.776 229.313 216.095 231.472 216.095C233.552 216.175 237.072 217.055 239.231 218.015C241.471 218.975 243.951 219.935 244.831 220.095C246.43 220.335 256.509 222.975 260.428 224.094C261.548 224.414 263.708 225.454 265.228 226.334C269.387 228.814 266.188 228.974 261.068 226.574C258.749 225.534 254.829 224.414 252.429 224.094C242.671 222.815 239.871 222.255 236.272 220.575C234.112 219.535 231.472 218.415 230.272 217.935C228.113 217.135 228.113 217.135 229.553 218.735C230.352 219.615 231.792 220.575 232.752 220.895C233.632 221.215 237.072 223.215 240.271 225.294C243.471 227.454 246.27 229.214 246.59 229.214C246.83 229.214 247.71 229.694 248.35 230.334C249.55 231.373 253.709 233.533 266.428 239.692C273.467 243.132 284.665 249.211 285.225 249.931C285.465 250.251 287.225 251.451 289.224 252.571C291.224 253.77 293.864 255.85 295.144 257.29C296.503 258.65 298.983 260.489 300.743 261.289C302.583 262.089 308.022 265.289 312.821 268.328C322.26 274.248 332.419 279.847 329.379 277.367C328.339 276.567 326.179 275.207 324.58 274.408C316.981 270.488 304.662 261.609 296.583 254.25C295.544 253.29 292.904 251.931 290.744 251.211C288.585 250.491 286.665 249.531 286.345 249.131C286.105 248.731 284.585 247.771 282.985 246.971C281.386 246.171 277.146 243.932 273.627 242.012C270.107 240.092 263.308 236.493 258.509 234.093C253.709 231.613 249.55 229.054 249.39 228.494C249.15 227.774 249.55 227.614 250.75 228.014C251.71 228.334 255.309 228.654 258.669 228.814C266.188 229.054 269.627 230.254 268.827 232.253C268.347 233.533 268.427 233.533 269.707 232.333C271.307 230.733 276.826 231.133 279.066 233.053C280.746 234.573 281.865 233.773 280.426 232.013C279.866 231.373 278.426 230.813 277.226 230.813C273.787 230.813 270.027 229.854 270.027 229.054C270.027 228.574 271.787 228.494 274.506 228.814C279.626 229.374 281.226 229.854 281.226 230.893C281.226 231.293 281.865 231.613 282.665 231.613C284.105 231.613 294.664 234.093 301.623 236.013C303.862 236.653 306.902 237.373 308.422 237.693C309.942 237.933 311.621 238.492 312.021 238.812C312.501 239.132 314.101 239.692 315.621 240.012C317.141 240.332 319.86 241.612 321.62 242.812C324.18 244.572 326.019 245.132 330.819 245.451C334.098 245.691 337.698 246.091 338.818 246.331C342.497 247.051 351.936 248.491 355.775 248.971C357.855 249.211 360.015 249.931 360.495 250.491C361.695 251.931 363.934 251.931 368.894 250.411C372.893 249.211 377.212 245.611 376.653 243.852C376.493 243.372 377.292 241.852 378.412 240.492C379.612 239.132 380.412 237.613 380.252 237.053C380.012 236.493 378.732 237.773 377.292 239.852C375.933 241.932 374.413 243.612 374.093 243.612C373.053 243.612 368.494 241.212 368.014 240.332C367.694 239.932 367.134 239.612 366.654 239.612C365.054 239.612 367.934 242.172 370.973 243.372C374.493 244.812 374.733 245.372 372.173 246.731C370.653 247.531 368.414 247.451 360.335 246.411C354.896 245.691 348.976 244.892 347.217 244.732C337.458 243.772 333.778 242.892 332.259 240.972C331.139 239.532 330.019 239.212 325.62 239.052C319.3 238.892 313.941 238.092 312.741 237.133C312.181 236.653 310.742 236.253 309.542 236.093C304.742 235.453 294.664 232.413 292.584 230.973C291.384 230.174 287.705 229.054 284.425 228.494C280.586 227.854 277.946 226.974 277.066 226.014C276.266 225.214 273.867 223.614 271.707 222.495C268.587 220.975 267.787 220.815 268.187 221.775C268.587 222.815 268.347 222.975 266.748 222.575C265.708 222.255 264.348 222.015 263.708 222.015C263.068 222.015 262.828 221.535 263.148 220.815C263.628 219.455 261.628 219.135 260.748 220.495C260.108 221.615 256.589 220.975 246.43 217.855C236.352 214.816 224.513 211.936 218.914 211.216C216.034 210.816 214.035 210.016 212.915 208.816C211.955 207.857 210.675 206.817 210.035 206.577C209.155 206.257 209.235 206.097 210.435 206.017C211.875 205.937 211.875 205.857 210.035 204.817C208.915 204.177 207.476 203.617 206.836 203.617C206.196 203.617 204.756 202.817 203.716 202.017C202.196 200.738 202.036 200.178 202.836 199.218C203.636 198.258 203.236 197.858 200.677 196.658C198.997 195.858 197.477 195.218 197.317 195.058C197.157 194.978 197.237 194.338 197.557 193.619C197.797 192.819 198.437 192.579 198.997 192.899C200.117 193.619 200.677 193.699 210.835 194.738C214.995 195.138 219.634 195.778 221.074 196.018C224.913 196.898 224.193 196.018 218.674 193.379C213.555 190.899 211.795 190.419 201.876 188.819C198.837 188.339 198.037 187.939 198.037 186.739C198.037 185.86 197.477 185.22 196.757 185.22C195.957 185.22 195.637 185.7 195.957 186.42C196.277 187.379 195.717 187.619 193.398 187.619C191.798 187.619 189.878 187.939 189.238 188.419C188.518 188.899 187.878 188.819 187.478 188.179C186.198 186.26 186.838 185.22 189.478 185.14C191.078 185.06 191.478 184.9 190.518 184.66C189.078 184.26 189.078 184.18 190.918 182.74C191.958 181.94 192.438 181.22 191.878 181.22C191.398 181.22 190.678 181.54 190.438 182.02C189.638 183.22 188.598 182.98 188.198 181.38C187.878 180.1 187.798 180.1 187.718 181.38C187.718 182.18 187.398 182.82 187.158 182.82C186.118 182.82 178.839 178.501 178.839 177.941C178.839 177.381 183.079 176.341 185.639 176.261C190.598 176.101 193.238 176.661 195.637 178.421L198.277 180.34L196.197 181.14C193.557 182.18 193.398 182.82 195.877 182.18C196.837 181.94 198.037 181.22 198.517 180.58C199.317 179.54 199.877 179.62 203.156 181.22C207.396 183.22 209.155 182.66 207.236 179.86C206.116 178.261 202.356 176.581 203.316 178.101C203.556 178.501 203.236 178.821 202.676 178.821C201.476 178.741 198.677 176.821 199.157 176.341C199.557 175.941 194.837 175.461 188.598 175.301C185.319 175.221 183.639 174.901 183.639 174.261C183.639 173.541 182.519 173.781 179.959 174.821C177.96 175.701 176.2 176.421 176.04 176.421C175.88 176.421 175.8 175.301 175.8 174.021C175.88 171.702 175.96 171.622 180.359 171.462C182.839 171.382 185.719 171.382 186.838 171.462C187.878 171.542 188.998 171.222 189.318 170.742C189.718 170.102 190.278 170.102 191.398 170.742C192.998 171.542 194.037 171.222 194.037 169.862C194.037 169.462 193.717 169.302 193.318 169.542C192.918 169.862 192.758 169.382 192.998 168.502C193.398 166.902 196.197 166.022 200.757 166.022C205.876 166.022 227.313 169.862 239.071 172.981C239.791 173.141 240.431 173.061 240.431 172.661C240.431 171.941 234.832 170.502 228.673 169.542C224.593 168.902 224.433 168.342 227.633 166.982C228.993 166.342 230.033 165.382 230.033 164.742C230.033 164.103 230.832 163.543 231.872 163.543C237.791 163.143 240.031 162.743 243.231 161.303C245.23 160.423 248.51 159.463 250.59 159.143C254.109 158.583 254.269 158.503 252.19 157.943C250.59 157.543 248.35 157.943 244.431 159.303C241.391 160.343 237.072 161.223 234.912 161.223C232.752 161.223 230.033 161.543 228.833 162.023C223.633 164.023 217.714 163.223 216.834 160.503C216.594 159.703 215.634 158.823 214.755 158.583C213.715 158.263 213.315 157.783 213.635 157.223C214.115 156.504 216.274 156.424 221.634 156.824C227.633 157.223 229.553 157.143 231.472 156.104C232.832 155.384 235.472 154.744 237.392 154.744L240.831 154.664L237.711 154.024C236.032 153.704 233.952 153.624 233.072 153.784C230.272 154.584 231.712 153.304 235.952 151.384C239.631 149.704 240.751 149.545 243.711 150.104C245.63 150.584 248.59 150.984 250.19 151.144C251.87 151.304 253.789 151.864 254.429 152.424C255.469 153.304 255.709 153.304 255.469 152.344C255.229 151.144 260.588 150.264 269.467 150.104L274.027 150.024V152.664C274.027 154.104 273.467 156.024 272.827 156.904C271.227 158.983 271.227 158.983 274.826 161.223C278.426 163.463 278.746 164.902 276.426 167.782C273.387 171.702 268.107 173.461 258.829 173.541C254.189 173.541 248.27 173.381 245.63 173.061C241.871 172.581 241.311 172.581 243.231 173.301C244.591 173.701 249.95 174.341 255.309 174.581C266.508 175.141 271.147 174.021 275.866 169.782C280.186 165.862 280.346 164.263 276.426 161.143C274.187 159.303 273.307 158.103 273.707 157.303C274.027 156.584 274.506 154.584 274.746 152.824L275.226 149.625L281.705 149.704C287.785 149.784 288.505 149.944 293.224 152.904C297.783 155.704 298.823 156.024 303.702 156.024C308.582 156.024 309.382 155.784 311.541 153.704C314.501 150.904 314.581 149.305 312.261 145.625C308.582 139.946 301.383 138.746 295.784 142.825C291.864 145.785 288.185 146.345 281.626 144.985C277.706 144.185 276.746 143.625 276.586 142.266C276.266 140.106 271.547 136.426 269.147 136.426C268.187 136.426 266.668 137.066 265.868 137.786C264.588 138.986 263.948 138.986 260.988 138.186C256.349 136.826 247.47 135.466 246.27 135.946C244.031 136.826 245.47 138.026 248.75 138.026C253.069 138.026 260.508 139.626 260.028 140.506C259.788 140.826 260.348 140.906 261.308 140.666C262.668 140.266 262.908 140.506 262.668 142.106C262.588 143.145 261.468 144.505 260.268 145.145C258.509 146.185 257.869 146.185 256.189 145.305C255.069 144.745 250.83 144.185 246.35 144.025C233.872 143.625 223.313 142.745 222.514 141.946C222.034 141.546 223.073 141.226 225.233 141.226C230.272 141.226 228.833 140.586 223.233 140.346C220.354 140.186 217.874 139.626 216.914 138.906C215.315 137.466 208.515 137.466 202.356 138.826C198.597 139.706 192.438 139.146 192.438 137.946C192.438 137.226 194.197 136.906 196.357 137.146C196.917 137.306 197.157 136.906 196.837 136.426C196.517 135.946 195.637 135.786 194.757 136.026C191.798 136.986 193.318 135.226 196.677 133.867C199.237 132.747 200.677 132.587 202.676 133.147C204.676 133.787 205.236 133.707 204.996 132.987C204.836 132.427 204.276 131.947 203.796 131.947C203.236 131.867 202.756 131.707 202.676 131.627C201.876 130.827 198.277 131.147 197.557 132.027C196.197 133.787 192.758 134.347 192.198 132.907C191.798 131.867 192.278 131.627 194.277 131.627C196.037 131.627 196.517 131.387 195.717 130.907C193.797 129.707 200.837 128.987 203.876 130.107C205.476 130.667 207.796 130.827 209.475 130.507C214.195 129.627 213.555 128.667 208.435 128.987C205.796 129.147 203.636 129.067 203.636 128.747C203.636 127.947 207.076 125.308 210.275 123.628C211.875 122.748 213.235 121.548 213.235 120.988C213.235 120.428 215.395 118.189 218.114 116.029C228.033 107.95 228.513 107.39 227.633 104.351C227.073 102.431 227.153 101.551 227.873 100.991C228.513 100.511 228.113 100.431 226.833 100.751C225.713 100.991 224.593 101.231 224.273 101.231C223.953 101.231 223.873 102.271 224.113 103.471C224.513 105.391 223.953 106.43 220.434 110.27C216.194 114.909 214.835 115.709 214.835 113.709C214.835 112.83 214.275 112.91 211.955 114.109C210.355 114.909 208.435 116.109 207.716 116.749C206.516 117.869 199.557 119.709 196.917 119.629C196.437 119.629 197.317 118.509 198.837 117.229C200.357 115.949 201.236 114.829 200.677 114.829C200.197 114.829 198.677 115.709 197.397 116.829C194.357 119.389 193.877 119.309 194.917 116.749C195.557 114.829 195.557 114.749 194.437 115.629C193.797 116.189 193.238 117.469 193.238 118.429C193.238 119.869 192.678 120.268 190.278 120.668C188.598 120.828 186.758 121.148 186.118 121.308C184.839 121.708 182.199 117.549 182.119 115.149C182.039 113.229 183.879 111.47 190.278 107.31C192.838 105.63 195.157 103.711 195.397 102.991C196.677 98.8314 197.557 97.2317 200.117 94.592C201.716 92.9122 204.596 91.1525 206.916 90.4326C209.075 89.7127 211.235 88.3529 211.715 87.553C213.075 84.9133 212.275 82.5936 209.715 81.9537C207.156 81.2338 205.556 81.8737 201.236 85.2333C199.717 86.4331 197.317 87.713 195.877 87.9529C193.078 88.5928 189.398 91.6324 189.798 92.9122C190.198 94.1121 186.918 98.0316 185.559 98.0316C184.599 98.0316 184.519 97.7116 185.319 96.1918C185.879 95.1519 185.239 95.5519 183.719 97.2317C182.439 98.7514 181.479 100.511 181.639 101.071C181.879 101.631 181.719 101.951 181.319 101.631C180.919 101.391 179.079 102.911 177.32 104.991C174.76 107.79 173.8 108.51 173.08 107.79C172.36 107.07 172.44 106.19 173.48 104.031C174.2 102.431 174.84 100.671 174.84 100.031C174.84 98.6714 181.719 94.0321 183.799 94.0321C184.519 94.0321 185.399 93.6321 185.639 93.2322C186.358 92.1123 182.279 93.0722 179.879 94.512C176.6 96.5117 177.8 94.0321 181.879 90.3526C183.959 88.4329 186.758 86.6731 188.038 86.3531C189.398 86.1132 192.518 84.7534 194.997 83.4735C202.036 79.714 204.916 72.9149 201.636 67.6357C200.996 66.5958 198.197 66.6758 195.877 67.7957ZM174.6 89.5527C174.84 89.7927 174.2 91.0725 173.24 92.4323C171.88 94.2721 171.64 95.1519 172.36 95.5519C173.08 96.0318 173 96.4318 172.04 97.2317C171.001 98.1115 170.921 98.0316 171.321 96.8317C171.8 95.6319 171.72 95.5519 170.121 96.5117C168.281 97.7116 166.441 97.0717 164.921 94.592C164.281 93.5522 164.601 92.7523 166.441 90.8325C168.441 88.6728 169.241 88.3529 171.56 88.7528C173 88.9928 174.44 89.3127 174.6 89.5527ZM196.437 93.6321C196.437 95.5519 191.718 99.8713 190.278 99.3114C189.478 98.9914 189.078 98.9914 189.398 99.2314C190.118 99.9513 185.719 106.75 183.639 108.19C180.839 110.11 180.759 108.67 183.479 105.311C184.919 103.551 186.038 101.871 186.038 101.551C186.038 101.231 188.118 98.9114 190.598 96.3518C194.917 91.9524 196.437 91.2325 196.437 93.6321ZM170.841 102.431C170.121 103.311 169.561 103.471 169.001 102.911C168.441 102.351 168.521 101.711 169.241 100.831C169.961 99.9513 170.521 99.7913 171.081 100.351C171.64 100.911 171.56 101.551 170.841 102.431ZM158.602 107.15C158.362 107.79 156.603 109.15 154.763 110.11C152.123 111.39 150.843 111.63 149.004 111.07C145.484 110.11 145.404 108.59 148.764 107.95C150.363 107.71 153.003 106.75 154.603 105.95C157.722 104.351 159.482 104.911 158.602 107.15ZM177.32 107.07C176.28 108.03 175.72 108.27 176.04 107.63C177.16 105.551 178.28 104.351 178.68 104.831C178.919 105.071 178.28 106.11 177.32 107.07ZM226.833 107.23C226.833 107.87 226.113 108.75 225.233 109.23C223.393 110.19 223.233 109.79 224.433 107.55C225.473 105.79 226.833 105.551 226.833 107.23ZM179.639 109.63C179.079 110.75 178.04 111.63 177.48 111.63C176.28 111.63 176.68 110.59 178.68 108.19C180.359 106.27 180.919 107.15 179.639 109.63ZM149.643 115.549C149.883 115.949 149.643 117.229 149.164 118.349C148.124 120.508 147.004 120.748 142.444 119.709L140.045 119.149L142.444 117.949C143.804 117.309 144.764 116.269 144.684 115.789C144.444 114.669 148.924 114.429 149.643 115.549ZM179.079 115.389C178.52 115.549 177.56 115.549 177.08 115.389C176.52 115.149 176.92 114.989 178.04 114.989C179.159 114.989 179.559 115.149 179.079 115.389ZM214.195 116.829C214.195 117.309 213.075 118.029 211.715 118.429C210.435 118.909 208.435 120.109 207.396 121.068C205.476 122.828 202.836 123.468 202.836 122.108C202.836 120.828 206.116 118.909 207.476 119.389C208.275 119.709 208.515 119.549 208.116 118.989C207.796 118.429 208.595 117.629 210.195 116.909C213.075 115.629 214.115 115.629 214.195 116.829ZM197.397 122.268C196.037 123.628 195.477 123.788 194.677 122.988C193.477 121.788 194.517 120.828 197.317 120.668L199.077 120.508L197.397 122.268ZM190.278 122.588C189.718 122.828 189.238 123.308 189.238 123.788C189.238 124.268 189.878 124.108 190.678 123.388C192.518 121.708 194.597 123.148 193.158 124.988C192.438 125.788 192.758 125.948 194.757 125.548C197.877 124.908 197.877 125.948 194.757 128.107C192.278 129.867 189.238 129.867 189.238 128.027C189.238 127.468 188.518 126.108 187.558 124.908C185.879 122.748 185.879 122.828 189.238 121.788C190.678 121.388 191.638 122.108 190.278 122.588ZM105.489 136.266C103.97 140.266 100.53 144.585 100.45 142.665C100.45 141.546 99.8902 141.306 97.2506 141.546C95.3309 141.786 93.8111 141.466 93.2511 140.826C92.7712 140.266 91.5714 139.946 90.6115 140.186C89.6516 140.346 91.1714 139.546 94.051 138.346C96.9306 137.146 99.8902 135.626 100.69 134.987C101.41 134.347 102.05 134.027 102.05 134.267C102.05 134.587 102.85 134.427 103.89 134.027C106.689 132.907 106.769 133.067 105.489 136.266ZM98.0505 145.225C98.0505 145.625 97.6505 146.025 97.1706 146.025C96.7707 146.025 96.6107 145.625 96.8506 145.225C97.0906 144.745 97.4906 144.425 97.7305 144.425C97.8905 144.425 98.0505 144.745 98.0505 145.225ZM219.314 145.145C219.714 145.385 220.114 146.105 220.274 146.745C220.434 147.545 219.954 147.705 218.274 147.305C215.155 146.505 210.835 146.745 209.315 147.705C208.355 148.345 208.675 148.425 210.675 148.185C215.235 147.625 232.992 151.464 231.152 152.584C229.473 153.624 221.474 154.104 219.394 153.304C218.194 152.824 213.315 152.264 208.595 152.024C201.076 151.704 199.877 151.384 198.597 149.944C195.477 146.105 198.917 144.505 210.115 144.585C214.755 144.585 218.914 144.825 219.314 145.145ZM224.433 148.345C224.433 148.745 223.713 148.905 222.834 148.665C221.954 148.425 221.234 148.105 221.234 147.945C221.234 147.785 221.954 147.625 222.834 147.625C223.713 147.625 224.433 147.945 224.433 148.345ZM206.036 154.024C206.036 155.064 205.156 155.064 203.636 154.024C202.676 153.384 202.756 153.224 204.276 153.224C205.236 153.224 206.036 153.544 206.036 154.024ZM230.672 155.384C229.873 155.544 228.433 155.544 227.473 155.384C226.433 155.224 227.073 155.064 228.833 155.064C230.592 154.984 231.392 155.144 230.672 155.384ZM204.836 157.303C205.636 158.503 205.236 158.583 201.476 158.183C199.557 158.023 198.277 157.543 198.517 157.143C199.077 156.104 204.196 156.264 204.836 157.303ZM200.996 160.263C202.276 161.063 202.196 161.223 200.037 162.023C198.757 162.503 197.397 163.303 197.157 163.783C196.837 164.263 195.237 164.662 193.637 164.742C190.998 164.822 190.518 164.503 189.798 162.583C188.918 159.943 189.158 159.623 192.598 158.903C195.317 158.263 198.357 158.823 200.996 160.263ZM210.355 163.143C211.795 163.703 214.835 164.503 217.154 164.822C219.474 165.142 221.154 165.622 220.834 165.862C220.114 166.582 210.195 166.102 205.236 165.062L200.837 164.183L203.636 163.143C207.316 161.863 207.236 161.863 210.355 163.143ZM165.561 169.382C166.281 170.342 166.841 171.382 166.841 171.702C166.841 172.661 162.842 172.181 161.962 171.142C160.842 169.782 162.122 169.622 163.482 170.982C164.201 171.702 164.441 171.702 164.441 171.062C164.441 170.502 164.121 169.862 163.642 169.622C163.242 169.382 162.842 168.822 162.842 168.342C162.842 167.062 164.281 167.542 165.561 169.382ZM173.48 172.901C174.84 173.381 175.4 175.621 174.2 175.621C173.8 175.621 172.68 174.661 171.56 173.541C170.521 172.341 170.201 171.622 170.841 171.941C171.48 172.181 172.68 172.661 173.48 172.901ZM170.121 174.581L172.04 176.741L170.121 175.541C169.001 174.821 167.961 173.861 167.801 173.381C167.321 171.861 168.041 172.261 170.121 174.581ZM97.0906 179.78C96.6107 181.22 94.8509 181.46 94.8509 180.1C94.8509 179.38 95.4108 178.821 96.1307 178.821C96.8506 178.821 97.2506 179.22 97.0906 179.78ZM68.4545 180.34C68.4545 181.3 66.8547 182.34 66.2948 181.78C65.7349 181.22 66.7747 179.62 67.7346 179.62C68.1346 179.62 68.4545 179.94 68.4545 180.34ZM98.8504 182.42C96.6107 184.82 97.8105 185.14 100.29 182.82C101.73 181.46 102.37 181.3 103.65 182.02C105.809 183.14 105.649 184.26 103.17 186.899C101.89 188.259 101.41 189.219 101.97 189.539C102.45 189.859 102.85 189.619 102.85 188.979C102.85 188.339 103.41 187.379 104.05 186.819C105.729 185.46 105.649 187.059 103.97 189.619C102.13 192.419 99.4103 192.179 97.2506 189.219C95.9708 187.379 95.7308 186.499 96.3707 185.7C96.8506 185.14 97.0106 184.42 96.6907 184.18C96.4507 183.86 97.0906 182.98 98.1305 182.1C100.77 179.86 101.09 180.02 98.8504 182.42ZM184.839 183.06C186.838 184.58 185.399 185.14 182.119 184.26C180.039 183.7 179.639 183.3 180.519 182.74C182.119 181.78 183.079 181.86 184.839 183.06ZM112.928 190.419C114.288 193.699 114.368 196.418 113.168 196.418C112.688 196.418 111.089 195.458 109.569 194.338C107.249 192.499 107.009 192.019 107.809 190.979C108.689 189.939 108.609 189.779 107.489 190.259C105.729 190.899 105.729 190.499 107.329 188.019C108.369 186.42 108.849 186.18 110.209 186.899C111.089 187.379 112.289 188.979 112.928 190.419ZM74.7737 189.539C75.4136 190.339 76.6134 190.579 78.5331 190.259C82.6126 189.619 81.8127 190.899 76.4534 193.779C71.0142 196.738 68.8545 196.578 69.6543 193.299C70.2143 191.219 72.214 188.419 73.2539 188.419C73.5738 188.419 74.2937 188.899 74.7737 189.539ZM208.116 191.139C211.235 191.699 214.435 192.579 215.315 193.059C218.034 194.578 206.676 193.139 203.636 191.539C200.197 189.779 200.837 189.699 208.116 191.139ZM68.4545 192.419C68.4545 192.819 68.0546 193.219 67.5746 193.219C67.1747 193.219 67.0147 192.819 67.2547 192.419C67.4946 191.939 67.8946 191.619 68.1346 191.619C68.2945 191.619 68.4545 191.939 68.4545 192.419ZM85.8121 192.899C86.2121 194.178 81.7327 197.298 78.4532 198.018C76.6134 198.418 75.2536 198.258 74.2937 197.618C73.0939 196.738 73.4138 196.338 77.6533 194.098C82.4526 191.619 85.2522 191.219 85.8121 192.899ZM196.437 193.699C196.437 194.338 196.117 194.658 195.637 194.418C195.237 194.178 194.837 193.619 194.837 193.139C194.837 192.739 195.237 192.419 195.637 192.419C196.117 192.419 196.437 192.979 196.437 193.699ZM98.7704 199.138C98.5304 199.378 97.8905 198.738 97.3306 197.778C96.2907 196.098 96.3707 196.098 97.7305 197.378C98.5304 198.178 99.0104 198.978 98.7704 199.138ZM194.117 200.978C195.397 201.777 196.437 202.657 196.437 202.977C196.437 203.617 192.278 202.097 189.478 200.498C188.198 199.778 188.278 199.698 189.878 199.618C190.918 199.618 192.838 200.258 194.117 200.978ZM190.038 203.217C190.998 204.337 190.838 204.417 188.838 204.097C185.639 203.537 184.359 202.017 186.998 202.017C188.118 202.017 189.478 202.577 190.038 203.217ZM201.716 204.417C202.356 204.417 202.836 204.817 202.836 205.297C202.836 206.257 199.637 205.457 198.437 204.177C197.877 203.617 198.117 203.537 199.077 203.937C199.877 204.177 201.076 204.417 201.716 204.417ZM174.92 238.092C176.44 239.932 177.8 241.692 177.88 242.092C178.04 242.492 178.839 242.812 179.559 242.812C181.079 242.812 181.799 243.532 191.638 254.41C197.477 260.809 200.757 263.529 197.317 259.13C194.437 255.37 187.638 247.691 182.119 241.852C179.319 238.812 177.24 236.173 177.56 235.853C177.8 235.533 178.52 235.773 178.999 236.253C179.559 236.813 180.439 237.213 180.999 237.213C181.639 237.213 183.079 237.853 184.279 238.732C187.798 241.132 195.877 246.331 198.197 247.611C200.357 248.811 206.836 256.25 206.836 257.45C206.836 257.85 207.956 259.45 209.315 261.049C210.675 262.649 212.355 265.049 212.915 266.489C214.035 269.208 214.435 274.168 213.555 275.047C212.275 276.247 204.196 270.808 197.237 264.089C190.358 257.45 181.239 250.811 178.919 250.811C178.44 250.811 178.04 250.331 177.96 249.771C177.8 246.011 177.08 243.932 175.56 242.492L173.88 240.812L174.76 242.492C175.48 244.092 175.24 245.212 174.12 245.212C173.88 245.212 173.16 244.172 172.6 242.892C172.04 241.612 170.681 239.612 169.641 238.492C167.081 235.693 167.161 234.813 169.961 234.813C171.64 234.813 172.92 235.613 174.92 238.092ZM184.679 255.21C187.158 256.49 188.598 258.01 187.238 258.01C186.198 258.01 180.439 254.57 180.439 253.85C180.439 253.45 180.679 253.21 181.079 253.37C181.399 253.53 182.999 254.33 184.679 255.21ZM211.795 276.087C213.955 276.967 215.874 278.327 216.354 279.447C217.554 281.927 217.554 281.927 214.435 280.887C211.315 279.767 208.995 277.847 206.596 274.408C205.076 272.168 205.076 272.088 206.516 273.288C207.316 274.008 209.715 275.207 211.795 276.087ZM256.109 284.486C258.749 285.846 262.828 288.086 265.388 289.366C267.867 290.645 270.507 292.405 271.227 293.205C272.747 294.885 273.307 294.645 264.908 296.405L260.988 297.284L256.109 293.045C253.469 290.725 250.59 288.166 249.79 287.366C248.91 286.486 247.71 286.086 246.83 286.406C244.751 287.046 244.031 285.366 245.71 283.526C247.71 281.367 250.75 281.607 256.109 284.486ZM383.052 359.276C384.891 361.436 386.171 364.795 385.371 365.515C384.571 366.395 378.012 361.436 378.012 359.996C378.012 358.956 379.612 357.196 380.572 357.196C380.972 357.196 382.012 358.156 383.052 359.276Z" fill="#A52F2F"/>
</svg>
