<svg width="500" height="500" viewBox="0 0 500 500" fill="none" xmlns="http://www.w3.org/2000/svg">
<path d="M91.1797 110.315C89.2109 110.808 88.8281 111.081 88.8281 112.175C88.8281 112.886 89.1563 113.706 89.5391 113.925C91.2891 115.018 93.2578 118.136 93.0391 119.448C92.9297 120.159 93.0391 121.636 93.3125 122.729C93.5859 123.823 94.0234 126.558 94.2422 128.8C94.6797 132.518 94.8438 132.901 96.8125 134.651C98.0156 135.636 99.1094 136.511 99.3281 136.511C99.4922 136.511 100.203 137.604 100.859 138.917C101.789 140.94 101.898 141.597 101.352 142.581C100.586 144.058 101.078 148.159 102.227 149.8C102.664 150.456 103.047 150.784 103.047 150.565C103.047 150.018 106.328 152.261 107.258 153.464C107.641 153.901 108.406 155.323 109.008 156.581C109.609 157.839 110.922 159.753 111.852 160.847L113.602 162.815L112.617 165.659C111.688 168.503 111.688 168.558 112.781 170.8C114.914 174.901 118.906 176.815 122.406 175.339C123.336 174.956 124.758 174.573 125.523 174.409C127.219 174.081 128.148 175.229 131.375 181.409C132.523 183.651 133.781 185.948 134.109 186.55C134.82 187.808 138.047 194.917 139.141 197.651C140.672 201.589 138.375 202.901 130.773 202.3C127.602 202.026 126.18 201.589 123.281 199.948C121.313 198.854 119.289 197.761 118.688 197.542C118.141 197.378 116.008 196.065 113.93 194.698C111.906 193.331 109.883 192.292 109.555 192.401C109.172 192.511 109.938 193.167 111.305 193.823C112.617 194.479 114.367 195.628 115.188 196.393C116.008 197.159 117.594 198.417 118.742 199.183C120.82 200.604 120.82 200.604 119.18 200.331C114.258 199.347 109.227 198.198 108.242 197.761C107.641 197.487 105.672 196.831 103.867 196.339C102.063 195.847 99.7109 195.026 98.6719 194.534C97.6328 194.097 96.2109 193.659 95.6094 193.55C94.9531 193.495 92.9844 192.839 91.2344 192.128C86.5859 190.214 85 189.886 85 190.925C85 191.964 87.9531 193.222 97.8516 196.393C102.391 197.815 107.367 199.456 108.953 200.003C110.539 200.604 113.711 201.425 116.008 201.917C118.305 202.354 120.766 203.229 121.422 203.722C122.516 204.597 132.852 208.37 139.523 210.339C140.836 210.722 142.258 211.487 142.75 212.089C143.297 212.636 144.117 213.073 144.609 213.073C145.156 213.073 145.867 213.456 146.25 213.893C146.633 214.331 148.164 215.261 149.75 216.026C153.523 217.831 157.734 221.987 159.594 225.761C160.469 227.511 161.344 230.518 161.617 232.815C161.945 235.058 162.547 237.573 163.039 238.503C164.844 241.893 174.742 252.612 177.586 254.198C178.68 254.854 179.609 255.565 179.609 255.784C179.609 256.003 177.969 256.987 175.945 258.026C173.484 259.284 172.008 260.433 171.297 261.636C170.75 262.62 170.477 263.386 170.641 263.386C171.078 263.386 174.414 260.979 174.797 260.268C175.07 259.94 176.492 258.737 178.023 257.643C180.813 255.675 180.813 255.675 183.109 256.44C184.914 257.097 187.32 257.206 193.609 256.987C200.883 256.714 202.141 256.823 205.531 257.862C209.742 259.175 211.93 260.378 215.977 263.55C221.992 268.308 224.07 271.643 224.727 277.44C225.109 280.776 224.781 281.542 223.578 280.339C222.922 279.683 222.594 280.011 216.086 286.847C214.008 288.979 212.039 290.729 211.711 290.729C211.328 290.729 210.125 291.003 208.977 291.331C207.281 291.768 206.898 292.097 207.063 293.026C207.172 293.683 207.664 294.448 208.156 294.776C208.867 295.214 209.414 294.995 210.891 293.628C218.547 286.354 223.195 282.526 224.453 282.526C226.367 282.526 223.523 289.198 220.898 290.839C219.313 291.823 219.313 291.878 220.68 291.55C221.883 291.222 222.156 291.386 222.484 292.589C223.141 295.214 221.117 297.183 216.961 298.058C214.992 298.495 214.281 299.151 213.789 301.175C213.188 303.636 215.922 306.151 221.008 307.847C224.836 309.104 225.656 309.214 229.102 308.776C231.234 308.503 234.516 307.792 236.484 307.136C241.461 305.55 258.031 302.651 260.602 302.979C261.75 303.089 262.734 302.979 262.734 302.761C262.734 302.487 263.227 302.323 263.828 302.378C265.25 302.487 265.25 304.073 263.828 305.386C263.227 305.987 262.844 306.808 263.008 307.245C263.172 307.683 262.844 308.886 262.242 309.925C260.656 312.714 260.711 318.511 262.406 321.683L263.664 324.089L264.539 321.737C265.031 320.479 265.688 316.706 266.07 313.425C266.727 307.409 267.547 304.948 269.023 304.948C269.406 304.948 270.664 305.823 271.813 306.862L273.836 308.776L273.453 312.495C273.234 314.518 272.961 317.526 272.797 319.167C272.633 320.808 272.25 322.995 271.922 323.979C271.594 325.073 271.484 327.643 271.703 330.268C272.031 334.37 271.922 335.245 270.172 340.878C269.133 344.214 267.602 348.425 266.781 350.175C265.469 352.964 265.25 354.058 265.195 359.362C265.141 363.737 264.867 365.815 264.266 366.964C263.445 368.44 263.445 368.604 264.375 369.643C264.977 370.245 265.797 371.776 266.234 372.979C266.781 374.511 267.055 374.839 267.055 374.018C267.109 373.362 266.727 371.667 266.234 370.245C265.523 368.167 265.469 367.128 265.961 364.284C266.289 362.425 266.563 359.964 266.563 358.815C266.563 357.667 266.781 355.972 267.055 355.042C267.328 354.112 267.82 352.253 268.203 350.886C270.008 343.667 270.555 342.081 271.211 342.354C271.648 342.518 271.813 342.245 271.648 341.534C271.484 340.987 271.758 339.292 272.25 337.815C272.742 336.284 273.125 334.589 273.125 333.933C273.125 332.948 273.398 332.839 275.258 332.948C278.156 333.112 279.25 332.128 278.977 329.503C278.867 328.354 278.648 327.206 278.43 326.987C278.211 326.823 278.047 326.058 278.047 325.347C278.047 324.636 277.719 324.089 277.281 324.089C275.914 324.089 275.805 323.159 276.461 317.417C277.227 310.909 277.883 309.706 279.633 311.565C281.055 313.097 281.109 313.972 279.688 315.175C279.086 315.722 278.594 316.378 278.594 316.651C278.594 316.925 279.195 316.597 279.961 315.886L281.328 314.628V316.05C281.328 316.815 281.602 317.636 281.93 317.854C282.258 318.018 282.859 319.058 283.297 320.097C284.172 322.175 286.906 324.089 289.094 324.089C292.047 324.089 293.305 325.347 291.172 326.167C290.406 326.44 290.242 326.768 290.68 327.37C291.117 328.081 291.281 328.081 291.938 327.206C292.813 326.058 292.867 326.167 293.633 330.104C293.852 331.143 294.617 333.823 295.383 336.011C296.094 338.198 296.531 340.495 296.367 341.097C296.148 341.698 296.313 342.573 296.75 343.065C297.297 343.722 297.461 346.511 297.461 354.386C297.461 364.175 297.406 364.995 296.258 367.183C293.961 371.448 294.891 377.573 298.172 380.526L300.086 382.167L299.594 385.393C299.047 388.511 299.484 391.136 300.414 390.589C300.633 390.425 300.742 388.565 300.578 386.433L300.305 382.604L301.945 382.003C303.914 381.347 304.734 379.761 305.172 375.823C305.5 373.308 305.336 372.542 304.023 370.136C303.203 368.659 301.836 366.909 301.016 366.253L299.484 365.159L299.375 356.518C299.156 341.37 298.5 334.425 296.695 329.284C295.875 326.933 295.711 325.893 296.148 325.347C297.133 324.198 298.773 324.472 299.047 325.839C299.211 326.55 299.43 327.753 299.594 328.518C299.922 330.104 302.328 332.018 303.258 331.417C303.641 331.198 303.75 329.94 303.531 327.917L303.148 324.8L305.938 323.104C307.414 322.175 308.672 321.136 308.672 320.862C308.672 320.534 309.984 321.628 311.57 323.268C314.086 325.893 314.688 326.222 316.492 326.167C317.586 326.112 318.516 325.893 318.516 325.62C318.516 325.401 319.008 325.183 319.555 325.183C321.25 325.183 323.438 322.94 323.766 320.808C323.984 319.55 323.656 317.745 322.891 315.612C320.758 309.542 320.703 309.651 323.492 310.034C326.992 310.526 327.43 310.034 326.992 306.425C326.664 303.69 326.719 303.362 327.758 302.761C328.742 302.268 329.234 302.378 330.711 303.472C331.641 304.237 333.336 304.948 334.43 305.112C335.523 305.276 337.547 306.261 338.969 307.354C342.141 309.761 347.063 315.065 348.211 317.308C349.578 319.933 354.445 323.815 366.094 331.417C368.063 332.675 370.797 334.479 372.164 335.464C373.586 336.448 375.117 337.214 375.555 337.214C376.047 337.214 377.578 338.198 378.945 339.401C380.313 340.604 381.68 341.589 381.953 341.589C382.227 341.589 382.883 342.19 383.375 342.956C384.469 344.651 383.648 345.964 381.461 345.964C380.039 345.964 378.672 346.839 378.672 347.714C378.672 348.206 385.727 347.604 387.039 346.948C387.75 346.565 388.734 347.058 391.305 349.081C393.164 350.503 395.953 352.69 397.594 353.893C399.18 355.097 401.641 357.448 403.063 359.089C406.344 362.972 409.57 365.104 412.086 365.104C415.695 365.104 416.406 362.534 413.563 359.854C411.156 357.612 409.625 356.737 405.742 355.315C400.164 353.292 398.742 352.472 395.352 349.245C393.547 347.55 390.867 345.472 389.336 344.597C386.93 343.229 383.375 340.222 379.492 336.229C378.836 335.573 378.016 335.026 377.742 335.026C377.195 335.026 374.516 332.729 369.758 328.245C368.172 326.768 364.289 323.214 361.008 320.37C357.781 317.526 354.883 314.792 354.609 314.3C354.336 313.808 353.188 312.878 352.094 312.276C349.578 311.018 349.25 310.745 342.906 305.331C340.172 302.979 337.656 300.518 337.273 299.862C336.18 297.839 336.398 296.253 337.93 295.651C338.695 295.378 339.297 294.776 339.297 294.284C339.297 293.081 339.789 293.245 342.523 295.542C343.891 296.69 346.406 298.55 348.047 299.753C349.688 300.956 351.164 302.104 351.219 302.323C351.492 302.925 352.422 302.87 352.422 302.268C352.422 301.995 351.383 301.175 350.125 300.409C348.813 299.643 346.078 297.565 344 295.706C341.922 293.847 340.008 292.37 339.789 292.37C339.516 292.37 339.188 291.823 339.023 291.112C338.75 290.183 338.313 289.854 337.219 289.909C333.938 290.073 332.188 287.667 332.352 283.292C332.461 280.776 332.57 280.612 333.828 280.776C334.594 280.886 336.289 281.597 337.602 282.308C339.133 283.128 340.227 283.456 340.555 283.128C340.883 282.8 340.609 282.417 339.898 281.979C339.242 281.651 338.859 281.159 339.023 280.831C339.516 280.12 338.531 280.229 337.766 280.995C337.328 281.433 336.945 281.433 336.453 280.995C336.07 280.722 334.813 280.284 333.719 280.065C332.188 279.792 331.531 279.3 330.984 278.097C330.547 277.112 329.398 276.073 327.867 275.362C322.727 272.956 321.359 271.808 320.977 269.401C320.648 267.542 320.758 266.995 321.633 266.393C322.781 265.518 324.859 265.354 325.297 266.065C325.461 266.339 326.063 266.448 326.609 266.284C327.156 266.175 329.125 266.558 330.984 267.159C332.844 267.815 335.25 268.308 336.398 268.308C343.07 268.308 358.875 272.847 368.5 277.495C368.773 277.659 368.773 277.44 368.555 277.058C367.133 274.761 345.477 267.815 335.305 266.393C331.859 265.956 331.531 264.917 333.992 262.401C335.031 261.308 336.398 259.339 337.055 258.081C339.461 253.214 338.695 252.722 328.086 252.667C320.539 252.612 319.609 252.503 317.859 251.464C316.766 250.808 315.563 249.44 315.18 248.456C314.414 246.542 309.164 239.378 306.703 236.972C305.883 236.097 303.586 234.675 301.617 233.69C296.367 231.175 294.563 229.425 294.18 226.308C293.578 221.495 292.867 219.854 290.406 217.558C286.414 213.839 281.109 213.729 274.656 217.175C272.578 218.268 270.719 218.979 270.391 218.815C270.117 218.651 269.023 216.683 268.039 214.55C266.891 212.089 265.633 210.175 264.648 209.573C263.773 209.026 261.367 206.839 259.289 204.761C257.156 202.683 254.75 200.604 253.93 200.222C252.234 199.347 249.117 195.847 247.969 193.55C247.531 192.729 246.273 190.979 245.125 189.722C243.977 188.409 243.047 187.042 243.047 186.604C243.047 185.347 238.398 181.464 236.156 180.862C234.953 180.534 233.094 180.261 232 180.261C229.375 180.261 223.688 178.183 219.75 175.831C218.055 174.792 214.828 172.167 212.531 169.925C210.18 167.737 206.625 164.784 204.492 163.417C202.414 162.05 200.063 160.409 199.352 159.808C196.398 157.183 193.008 153.573 191.094 151.003C189.945 149.526 187.922 147.065 186.555 145.643C184.367 143.347 183.93 142.526 183.164 138.808C182.672 136.511 182.016 133.776 181.797 132.792C181.414 131.315 181.523 130.933 182.234 130.659C182.672 130.44 183.219 130.604 183.328 130.933C183.656 132.026 184.531 131.643 184.531 130.44C184.531 128.581 181.305 124.37 180.047 124.589C177.695 124.917 177.586 126.339 179.773 130.659C181.141 133.393 181.906 135.8 182.125 138.042L182.508 141.433H180.922C180.047 141.378 177.859 140.558 176.055 139.518C174.25 138.534 170.695 136.62 168.07 135.253C165.5 133.94 162.93 132.573 162.328 132.245C160.086 131.097 151.609 127.761 150.898 127.761C150.734 127.761 150.625 127.979 150.625 128.253C150.625 128.526 151.555 128.854 152.703 129.073C153.797 129.237 156.969 130.55 159.648 131.917C162.383 133.339 165.336 134.815 166.211 135.308C167.141 135.745 170.313 137.55 173.32 139.245C176.328 140.94 179.883 142.909 181.25 143.565C184.313 145.097 187.977 148.597 192.461 154.339C196.672 159.698 207.773 170.964 208.813 170.964C209.25 170.964 211.93 172.714 214.773 174.792C219.75 178.456 225.109 181.354 226.969 181.354C227.406 181.354 227.68 181.573 227.516 181.847C227.352 182.12 227.516 182.284 227.898 182.284C228.227 182.229 230.141 182.393 232.109 182.612C236.867 183.214 239.984 185.401 242.391 189.94C243.32 191.745 244.523 193.55 244.961 193.933C245.453 194.315 246.328 195.409 246.984 196.284L248.133 197.87L246.93 197.487C246.055 197.214 245.781 197.378 245.781 198.198C245.781 198.8 246.164 200.003 246.602 200.823C248.023 203.612 247.75 204.05 244.414 204.159C242.609 204.268 241.406 204.104 241.406 203.722C241.406 203.393 240.914 203.284 240.313 203.503C239.711 203.722 239.219 203.612 239.219 203.284C239.219 202.956 238.945 202.683 238.617 202.683C238.234 202.683 238.344 203.229 238.891 204.05C239.766 205.417 239.656 207.604 238.727 207.604C238.508 207.604 236.32 205.854 233.969 203.776C228.172 198.636 226.477 197.815 231.344 202.464C235.336 206.401 238.891 210.886 238.344 211.378C238.18 211.542 237.852 211.323 237.578 210.886C237.195 210.339 237.031 210.284 237.031 210.722C237.031 211.104 236.703 211.433 236.266 211.433C235.828 211.433 235.391 211.815 235.172 212.253C234.789 213.347 233.203 212.69 233.203 211.433C233.203 210.886 232.875 210.339 232.547 210.175C232 210.011 232 209.792 232.547 209.136C233.422 208.042 232.82 206.511 231.563 206.511C230.141 206.511 229.758 208.261 230.742 210.12C231.836 212.308 231.781 212.581 230.195 212.198C229.43 211.979 228.445 212.143 228.008 212.526C226.75 213.565 225.602 212.8 224.453 210.065C223.852 208.698 223.25 207.604 223.086 207.604C222.922 207.604 223.031 208.097 223.359 208.698C224.016 209.901 223.414 210.12 222.266 209.081C221.609 208.534 221.609 208.589 222.211 209.354C222.594 209.847 222.758 210.558 222.539 210.886C222.375 211.159 222.648 211.433 223.195 211.433C224.453 211.433 225.93 213.839 226.039 216.081C226.203 218.761 226.367 219.909 226.859 220.62C227.078 221.003 227.188 221.44 227.133 221.495C226.477 222.097 223.305 223.464 222.648 223.464C221.391 223.464 220.68 225.979 220.625 230.683C220.57 231.995 220.352 232.214 218.93 232.214C218 232.214 216.633 232.706 215.867 233.308C213.57 235.058 210.617 235.604 204.984 235.167C199.844 234.784 197.875 234.018 198.367 232.542C198.477 232.214 199.898 231.776 201.484 231.503C205.695 230.901 205.695 230.354 201.539 230.792C199.57 230.956 197.766 230.901 197.438 230.573C197.055 230.3 196.234 230.19 195.523 230.409C193.938 230.792 194.156 232.761 195.906 233.636C198.203 234.784 198.586 235.495 197.438 236.37C196.016 237.409 195.906 237.354 193.938 235.495C192.953 234.565 191.969 233.854 191.641 233.854C191.367 233.854 190.273 233.143 189.289 232.214C188.25 231.339 187.32 230.737 187.156 230.847C187.047 231.011 186.227 230.354 185.352 229.479C184.477 228.55 183.492 227.839 183.109 227.839C182.18 227.839 175.18 224.229 175.508 223.901C175.672 223.792 174.086 223.081 172.063 222.37C167.852 220.948 165.391 219.581 162.602 217.229C161.016 215.862 154.891 211.378 151.883 209.3C150.789 208.589 148 203.831 146.578 200.222C145.758 198.089 143.953 194.206 142.641 191.526C141.328 188.901 140.344 186.495 140.508 186.276C140.672 186.003 140.18 185.183 139.469 184.362C137.883 182.667 137.172 179.167 138.047 177.581C138.43 176.815 139.195 176.433 140.18 176.433C143.078 176.433 144.938 172.276 142.969 170.143C142.422 169.542 140.727 165.933 139.25 162.159C137.719 158.386 136.133 154.503 135.641 153.573C133.781 149.964 127.711 143.237 122.188 138.589L116.336 133.722L114.367 128.69C113.219 125.901 112.344 123.058 112.344 122.292C112.344 121.526 111.578 120.214 110.594 119.175C109.063 117.589 108.898 117.206 109.5 116.276C110.102 115.292 109.992 115.073 108.789 114.636C107.969 114.308 107.203 114.089 106.984 114.089C106.766 114.089 105.617 113.433 104.414 112.612C103.047 111.683 101.133 110.972 99.2188 110.753C97.5781 110.534 95.6094 110.206 94.8438 110.042C94.0781 109.933 92.4375 110.042 91.1797 110.315ZM113.547 145.097C116.555 147.995 117.375 155.323 115.242 160.19L114.367 162.214L113.055 161.011C112.344 160.354 110.867 158.058 109.828 155.925C108.789 153.847 107.477 151.495 106.875 150.729C105.453 148.815 105.07 144.933 106.219 143.839C107.531 142.526 111.578 143.237 113.547 145.097ZM255.078 205.581C258.031 208.862 258.359 209.464 257.703 210.12C256.117 211.706 251.797 208.534 251.797 205.745C251.797 205.143 251.195 203.503 250.43 202.19C248.023 198.034 248.352 198.253 255.078 205.581ZM134.93 205.745C139.141 206.675 141.328 207.768 141.328 208.862C141.328 209.409 139.688 209.081 135.586 207.714C132.414 206.729 129.844 205.636 129.844 205.362C129.844 204.706 130.336 204.706 134.93 205.745ZM234.188 214.276C234.297 214.933 234.133 215.151 233.586 214.933C233.148 214.768 232.602 214.878 232.383 215.206C231.945 215.917 229.922 215.972 228.883 215.315C228.227 214.878 228.227 214.659 228.773 213.948C229.758 212.745 233.969 213.018 234.188 214.276ZM241.516 215.753C241.789 216.3 245.125 218.542 245.727 218.542C246.438 218.542 250.156 222.972 250.156 223.847C250.156 225.05 247.477 227.456 246.602 227.073C243.813 225.925 243.813 225.925 244.906 227.237C245.672 228.058 245.781 228.604 245.398 228.987C243.977 230.409 240.203 226.472 238.945 222.261C238.18 219.69 238.234 219.198 239.109 216.518C240.039 213.675 240.477 213.565 241.516 215.753ZM201.758 240.745C202.086 240.8 202.578 240.854 202.852 240.909C203.18 240.964 203.016 241.237 202.578 241.511C201.867 242.003 201.867 242.167 202.688 242.823C203.617 243.534 206.406 247.308 206.406 247.854C206.406 247.964 205.531 247.636 204.492 247.143C203.453 246.597 201.867 245.065 200.992 243.698C200.063 242.331 198.914 240.636 198.367 239.925L197.438 238.612L199.297 239.651C200.336 240.198 201.484 240.69 201.758 240.745Z" fill="#A52F2F"/>
</svg>
